# xmcd
#
# Track frame offsets:
#  150
#  11866
#  23571
#  35056
#  47205
#  58140
#  71802
#  83818
#  97357
#  110820
#  124438
#  135177
#  147367
#  160862
#  172733
#  184086
#  198090
#  209623
#  221923
#  232115
#  244293
#  254132
#  267531
#  277947
#  287984
#  300470
#
# Disc length: 4142 seconds
#
# Revision: 0
# Processed by: cddbd v1.5.2PL0 Copyright (c) Steve Scherf et al.
# Submitted via: AltoMP3_Maker 3.0
#
DISCID=a1102c1a
DTITLE=Ray Price - The Complete Singles, As n' Bs - 1950-62, CD1
DYEAR=1900
DGENRE=
TTITLE0=Jealous Lies
TTITLE1=Your Wedding Corsage
TTITLE2=If You're Ever Lonely, Darling
TTITLE3=You've Got My Troubles Now
TTITLE4=I Saw My Castles Fall
TTITLE5=Hey La La
TTITLE6=Until Death Do Us Part
TTITLE7=Heart Aching Blues
TTITLE8=I Made a Mistake and I'm Sorry
TTITLE9=Weary Blues
TTITLE10=I've Got to Hurry, Hurry, Hurry
TTITLE11=Talk to Your Heart
TTITLE12=I Know I'll Never Win Your Love Again
TTITLE13=The Road of No Return
TTITLE14=I Can't Escape from You
TTITLE15=Won't You Please Be Mine
TTITLE16=I Lost the Only Love I Knew
TTITLE17=Don't Let the Stars Get in YOur Eyes
TTITLE18=You're under Arrest
TTITLE19=My Old Scrapbook
TTITLE20=That's What I Get for Loving You
TTITLE21=The Price for Loving You
TTITLE22=Cold Shoulder
TTITLE23=You Weren't Ashamed to Kiss Me
TTITLE24=Wrong Side of Town
TTITLE25=Who Stole That Train
EXTD=
EXTT0=
EXTT1=
EXTT2=
EXTT3=
EXTT4=
EXTT5=
EXTT6=
EXTT7=
EXTT8=
EXTT9=
EXTT10=
EXTT11=
EXTT12=
EXTT13=
EXTT14=
EXTT15=
EXTT16=
EXTT17=
EXTT18=
EXTT19=
EXTT20=
EXTT21=
EXTT22=
EXTT23=
EXTT24=
EXTT25=
PLAYORDER=
